<?xml version="1.0" standalone="no"?>
<svg xmlns="http://www.w3.org/2000/svg" viewBox="0 0 99.12 17.976" width="99.12" height="17.976"><path fill="#ffffff" fill-rule="nonzero" d="M5.21 17.98Q0 17.98 0 12.70L0 12.70L0.02 11.30L4.22 11.30L4.25 13.37Q4.25 13.99 4.49 14.32Q4.73 14.64 5.28 14.64L5.28 14.64Q6.12 14.64 6.12 13.27L6.12 13.27Q6.12 12.26 5.72 11.69Q5.33 11.11 4.46 10.46L4.46 10.46L2.23 8.74Q1.08 7.85 0.58 6.90Q0.07 5.95 0.07 4.22L0.07 4.22Q0.07 2.88 0.78 1.93Q1.49 0.98 2.66 0.50Q3.84 0.02 5.28 0.02L5.28 0.02Q10.39 0.02 10.39 5.11L10.39 5.11L10.39 5.45L6.05 5.45L6.05 4.78Q6.05 4.15 5.84 3.71Q5.64 3.26 5.16 3.26L5.16 3.26Q4.73 3.26 4.50 3.52Q4.27 3.77 4.27 4.20L4.27 4.20Q4.27 5.16 5.02 5.69L5.02 5.69L7.61 7.58Q9 8.62 9.74 9.83Q10.49 11.04 10.49 12.89L10.49 12.89Q10.49 15.34 9.10 16.66Q7.70 17.98 5.21 17.98L5.21 17.98ZM17.06 17.98Q14.18 17.98 12.91 16.51Q11.64 15.05 11.64 12.02L11.64 12.02L11.64 6.60Q11.64 4.32 12.13 2.89Q12.62 1.46 13.79 0.74Q14.95 0.02 17.02 0.02L17.02 0.02Q19.27 0.02 20.69 1.20Q22.10 2.38 22.10 4.49L22.10 4.49L22.10 7.18L17.83 7.18L17.83 4.70Q17.83 4.01 17.64 3.64Q17.45 3.26 16.90 3.26L16.90 3.26Q15.86 3.26 15.86 4.73L15.86 4.73L15.86 13.25Q15.86 13.85 16.12 14.27Q16.37 14.69 16.87 14.69L16.87 14.69Q17.38 14.69 17.63 14.28Q17.88 13.87 17.86 13.22L17.86 13.22L17.83 10.27L22.10 10.27L22.10 13.34Q22.10 15.50 20.70 16.74Q19.30 17.98 17.06 17.98L17.06 17.98ZM23.57 17.78L23.57 0.22L27.77 0.22L27.77 2.16Q28.08 1.13 28.86 0.56Q29.64 0 30.79 0L30.79 0L30.79 3.50Q29.90 3.50 28.84 3.76Q27.77 4.01 27.77 4.34L27.77 4.34L27.77 17.78L23.57 17.78ZM35.21 17.98Q33.24 17.98 32.51 16.80Q31.78 15.62 31.78 13.30L31.78 13.30L31.78 0.22L36 0.22L36 12.46Q36 12.62 36 13.36Q36 14.09 36.23 14.39Q36.46 14.69 36.94 14.69L36.94 14.69Q37.58 14.69 37.75 14.15Q37.92 13.61 37.92 12.60L37.92 12.60L37.92 12.46L37.94 0.22L42.12 0.22L42.12 17.78L37.92 17.78L37.92 15.91Q37.49 17.02 36.91 17.50Q36.34 17.98 35.21 17.98L35.21 17.98ZM43.80 17.78L43.80 0.22L47.90 0.22L47.90 2.26Q48.19 1.13 48.89 0.58Q49.58 0.02 50.86 0.02L50.86 0.02Q51.89 0.02 52.64 0.49Q53.40 0.96 53.71 1.78L53.71 1.78Q54.24 0.86 54.89 0.44Q55.54 0.02 56.69 0.02L56.69 0.02Q58.75 0.02 59.56 1.28Q60.36 2.54 60.36 4.94L60.36 4.94L60.31 17.78L56.09 17.78L56.09 4.87Q56.09 3.17 55.22 3.17L55.22 3.17Q54.62 3.17 54.36 3.76Q54.10 4.34 54.10 5.16L54.10 5.16L54.10 17.78L49.90 17.78L49.90 4.87Q49.90 4.13 49.74 3.67Q49.58 3.22 49.08 3.22L49.08 3.22Q48.43 3.22 48.17 3.85Q47.90 4.49 47.90 5.38L47.90 5.38L47.90 17.78L43.80 17.78ZM61.99 17.78L61.99 0.22L66.10 0.22L66.10 2.26Q66.38 1.13 67.08 0.58Q67.78 0.02 69.05 0.02L69.05 0.02Q70.08 0.02 70.84 0.49Q71.59 0.96 71.90 1.78L71.90 1.78Q72.43 0.86 73.08 0.44Q73.73 0.02 74.88 0.02L74.88 0.02Q76.94 0.02 77.75 1.28Q78.55 2.54 78.55 4.94L78.55 4.94L78.50 17.78L74.28 17.78L74.28 4.87Q74.28 3.17 73.42 3.17L73.42 3.17Q72.82 3.17 72.55 3.76Q72.29 4.34 72.29 5.16L72.29 5.16L72.29 17.78L68.09 17.78L68.09 4.87Q68.09 4.13 67.93 3.67Q67.78 3.22 67.27 3.22L67.27 3.22Q66.62 3.22 66.36 3.85Q66.10 4.49 66.10 5.38L66.10 5.38L66.10 17.78L61.99 17.78ZM85.10 17.98Q82.39 17.98 81.22 16.49Q80.04 15.00 80.04 12.05L80.04 12.05L80.04 4.99Q80.04 2.57 81.43 1.30Q82.82 0.02 85.32 0.02L85.32 0.02Q90.38 0.02 90.38 4.99L90.38 4.99L90.38 6.26Q90.38 8.18 90.34 9.38L90.34 9.38L84.24 9.38L84.24 12.79Q84.24 13.70 84.43 14.22Q84.62 14.74 85.25 14.74L85.25 14.74Q85.73 14.74 85.93 14.45Q86.14 14.16 86.17 13.79Q86.21 13.42 86.21 12.70L86.21 12.70L86.21 10.99L90.38 10.99L90.38 12Q90.38 15.07 89.20 16.52Q88.01 17.98 85.10 17.98L85.10 17.98ZM84.22 7.30L86.21 7.30L86.21 5.04Q86.21 3.14 85.27 3.14L85.27 3.14Q84.22 3.14 84.22 5.04L84.22 5.04L84.22 7.30ZM91.90 17.78L91.90 0.22L96.10 0.22L96.10 2.16Q96.41 1.13 97.19 0.56Q97.97 0 99.12 0L99.12 0L99.12 3.50Q98.23 3.50 97.16 3.76Q96.10 4.01 96.10 4.34L96.10 4.34L96.10 17.78L91.90 17.78Z"></path></svg>